<?xml version="1.0" encoding="UTF-8" standalone="no"?>
<!-- Created with Inkscape (http://www.inkscape.org/) -->

<svg
   width="800"
   height="800"
   viewBox="0 0 800 800"
   version="1.1"
   id="svg1"
   xml:space="preserve"
   inkscape:version="1.3 (0e150ed6c4, 2023-07-21)"
   sodipodi:docname="dioelectricv3.svg"
   inkscape:export-filename="dioelectricv3.png"
   inkscape:export-xdpi="96"
   inkscape:export-ydpi="96"
   xmlns:inkscape="http://www.inkscape.org/namespaces/inkscape"
   xmlns:sodipodi="http://sodipodi.sourceforge.net/DTD/sodipodi-0.dtd"
   xmlns:xlink="http://www.w3.org/1999/xlink"
   xmlns="http://www.w3.org/2000/svg"
   xmlns:svg="http://www.w3.org/2000/svg"><sodipodi:namedview
     id="namedview1"
     pagecolor="#ffffff"
     bordercolor="#000000"
     borderopacity="0.25"
     inkscape:showpageshadow="2"
     inkscape:pageopacity="0.0"
     inkscape:pagecheckerboard="false"
     inkscape:deskcolor="#d1d1d1"
     inkscape:document-units="mm"
     inkscape:lockguides="false"
     inkscape:zoom="0.4894542"
     inkscape:cx="477.062"
     inkscape:cy="258.45115"
     inkscape:window-width="1920"
     inkscape:window-height="1001"
     inkscape:window-x="-9"
     inkscape:window-y="-9"
     inkscape:window-maximized="1"
     inkscape:current-layer="layer1"><sodipodi:guide
       position="0,800"
       orientation="0,800"
       id="guide1"
       inkscape:locked="false" /><sodipodi:guide
       position="800,800"
       orientation="800,0"
       id="guide2"
       inkscape:locked="false" /><sodipodi:guide
       position="800,0"
       orientation="0,-800"
       id="guide3"
       inkscape:locked="false" /><sodipodi:guide
       position="0,0"
       orientation="-800,0"
       id="guide4"
       inkscape:locked="false" /></sodipodi:namedview><defs
     id="defs1"><linearGradient
       id="linearGradient26"
       inkscape:collect="always"><stop
         style="stop-color:#070064;stop-opacity:0.87209302;"
         offset="0"
         id="stop26" /><stop
         style="stop-color:#9250cd;stop-opacity:0.85348839;"
         offset="0.36239317"
         id="stop28" /><stop
         style="stop-color:#2a3f9a;stop-opacity:1;"
         offset="0.73504275"
         id="stop30" /><stop
         style="stop-color:#131a4f;stop-opacity:0.34509805;"
         offset="0.8940171"
         id="stop29" /><stop
         style="stop-color:#000000;stop-opacity:0.97674417;"
         offset="1"
         id="stop27" /></linearGradient><inkscape:path-effect
       effect="spiro"
       id="path-effect16"
       is_visible="true"
       lpeversion="1" /><inkscape:path-effect
       effect="spiro"
       id="path-effect14"
       is_visible="true"
       lpeversion="1" /><inkscape:path-effect
       effect="bspline"
       id="path-effect13"
       is_visible="true"
       lpeversion="1.3"
       weight="33.333333"
       steps="2"
       helper_size="0"
       apply_no_weight="true"
       apply_with_weight="true"
       only_selected="false"
       uniform="false" /><inkscape:path-effect
       effect="bspline"
       id="path-effect11"
       is_visible="true"
       lpeversion="1.3"
       weight="33.333333"
       steps="2"
       helper_size="0"
       apply_no_weight="true"
       apply_with_weight="true"
       only_selected="false"
       uniform="false" /><inkscape:path-effect
       effect="bspline"
       id="path-effect4"
       is_visible="true"
       lpeversion="1.3"
       weight="33.333333"
       steps="2"
       helper_size="0"
       apply_no_weight="true"
       apply_with_weight="true"
       only_selected="false"
       uniform="false" /><inkscape:path-effect
       effect="bspline"
       id="path-effect3"
       is_visible="true"
       lpeversion="1.3"
       weight="33.333333"
       steps="2"
       helper_size="0"
       apply_no_weight="true"
       apply_with_weight="true"
       only_selected="false"
       uniform="false" /><inkscape:path-effect
       effect="bspline"
       id="path-effect2"
       is_visible="true"
       lpeversion="1.3"
       weight="33.333333"
       steps="2"
       helper_size="0"
       apply_no_weight="true"
       apply_with_weight="true"
       only_selected="false"
       uniform="false" /><inkscape:path-effect
       effect="bspline"
       id="path-effect10"
       is_visible="true"
       lpeversion="1.3"
       weight="33.333333"
       steps="2"
       helper_size="0"
       apply_no_weight="true"
       apply_with_weight="true"
       only_selected="false"
       uniform="false" /><inkscape:path-effect
       effect="bspline"
       id="path-effect9"
       is_visible="true"
       lpeversion="1.3"
       weight="33.333333"
       steps="2"
       helper_size="0"
       apply_no_weight="true"
       apply_with_weight="true"
       only_selected="false"
       uniform="false" /><inkscape:path-effect
       effect="bspline"
       id="path-effect8"
       is_visible="true"
       lpeversion="1.3"
       weight="33.333333"
       steps="2"
       helper_size="0"
       apply_no_weight="true"
       apply_with_weight="true"
       only_selected="false"
       uniform="false" /><inkscape:path-effect
       effect="bspline"
       id="path-effect7"
       is_visible="true"
       lpeversion="1.3"
       weight="33.333333"
       steps="2"
       helper_size="0"
       apply_no_weight="true"
       apply_with_weight="true"
       only_selected="false"
       uniform="false" /><inkscape:path-effect
       effect="bspline"
       id="path-effect6"
       is_visible="true"
       lpeversion="1.3"
       weight="33.333333"
       steps="2"
       helper_size="0"
       apply_no_weight="true"
       apply_with_weight="true"
       only_selected="false"
       uniform="false" /><inkscape:path-effect
       effect="bspline"
       id="path-effect5"
       is_visible="true"
       lpeversion="1.3"
       weight="33.333333"
       steps="2"
       helper_size="0"
       apply_no_weight="true"
       apply_with_weight="true"
       only_selected="false"
       uniform="false" /><radialGradient
       inkscape:collect="always"
       xlink:href="#linearGradient26"
       id="radialGradient30"
       cx="400"
       cy="426.93454"
       fx="400"
       fy="426.93454"
       r="69.838516"
       gradientTransform="matrix(1.3990514,0,0,1.2852026,-160.17417,-10.778211)"
       gradientUnits="userSpaceOnUse"
       spreadMethod="pad" /></defs><g
     inkscape:label="Capa 1"
     inkscape:groupmode="layer"
     id="layer1"
     style="display:inline"><path
       id="path4"
       style="display:inline;mix-blend-mode:normal;fill:#404040;fill-opacity:1;fill-rule:evenodd;stroke:#000000;stroke-width:5.04337;stroke-linecap:round;stroke-linejoin:round;stroke-dasharray:none;stroke-opacity:1"
       d="M 399.44636,281.61667 A 253.8543,254.4583 0 0 0 145.59231,536.07733 253.8543,254.4583 0 0 0 188.18414,676.71752 L 399.16765,532.1507 610.52004,676.96892 A 253.8543,254.4583 0 0 0 653.30043,536.07733 253.8543,254.4583 0 0 0 399.44636,281.61667 Z" /><path
       id="path4-9"
       style="display:inline;mix-blend-mode:normal;fill:#000000;fill-opacity:1;fill-rule:nonzero;stroke:#000000;stroke-width:4.2482;stroke-linecap:round;stroke-linejoin:round;stroke-dasharray:none;stroke-opacity:1"
       d="M 399.44636,321.75197 A 213.83,214.33873 0 0 0 185.61557,536.09099 213.83,214.33873 0 0 0 221.1657,654.11957 L 399.16765,532.1507 577.5385,654.37096 A 213.83,214.33873 0 0 0 613.27716,536.09099 213.83,214.33873 0 0 0 399.44636,321.75197 Z" /><path
       id="path21"
       style="display:inline;mix-blend-mode:normal;fill:#404040;fill-opacity:0;fill-rule:evenodd;stroke:#000000;stroke-width:0;stroke-linecap:round;stroke-linejoin:round;stroke-dasharray:none;stroke-opacity:1"
       d="m 193.55273,-457.67697 a 90.723635,0 -180 0 0 181.44727,0 15.22168,0 0 0 0 -30.44336,0 H 193.75195 42.68359 a 15.289065,0 0 0 0 -30.57813,0 z" /><path
       style="display:inline;mix-blend-mode:normal;fill:#404040;fill-opacity:0;fill-rule:evenodd;stroke:#000000;stroke-width:69.9526;stroke-linecap:butt;stroke-linejoin:miter;stroke-dasharray:none;stroke-opacity:1;paint-order:normal"
       id="path4-3"
       sodipodi:type="arc"
       sodipodi:cx="399.44635"
       sodipodi:cy="434.32159"
       sodipodi:rx="253.85431"
       sodipodi:ry="254.45831"
       sodipodi:start="3.9269908"
       sodipodi:end="5.4977871"
       sodipodi:arc-type="arc"
       d="m 219.94424,254.3924 a 253.85431,254.45831 0 0 1 359.00421,-1e-5"
       sodipodi:open="true" /><path
       style="display:inline;mix-blend-mode:normal;fill:#404040;fill-opacity:0;fill-rule:evenodd;stroke:#000000;stroke-width:69.9526;stroke-linecap:butt;stroke-linejoin:miter;stroke-dasharray:none;stroke-opacity:1;paint-order:normal"
       id="ellipse22"
       sodipodi:type="arc"
       sodipodi:cx="399.44635"
       sodipodi:cy="434.32159"
       sodipodi:rx="384.21872"
       sodipodi:ry="385.13287"
       sodipodi:start="3.9269908"
       sodipodi:end="5.4977871"
       sodipodi:arc-type="arc"
       d="m 127.76268,161.99153 a 384.21872,385.13287 0 0 1 543.36732,-1e-5"
       sodipodi:open="true" /><ellipse
       style="display:inline;mix-blend-mode:normal;fill:#404040;fill-opacity:0;fill-rule:evenodd;stroke:#000000;stroke-width:50;stroke-linecap:round;stroke-linejoin:round;stroke-dasharray:none;stroke-opacity:1"
       id="ellipse24"
       ry="181.87917"
       rx="181.44745"
       cy="-589.01263"
       cx="-442.41202" /><ellipse
       style="display:inline;mix-blend-mode:normal;fill:#404040;fill-opacity:0;fill-rule:evenodd;stroke:#000000;stroke-width:50;stroke-linecap:round;stroke-linejoin:round;stroke-dasharray:none;stroke-opacity:1"
       id="ellipse25"
       ry="275.28143"
       rx="274.62802"
       cy="-589.01263"
       cx="-442.41202" /><ellipse
       style="display:inline;mix-blend-mode:normal;fill:#404040;fill-opacity:0;fill-rule:evenodd;stroke:#000000;stroke-width:50;stroke-linecap:round;stroke-linejoin:round;stroke-dasharray:none;stroke-opacity:1"
       id="ellipse26"
       ry="374.31247"
       rx="373.42398"
       cy="-589.01263"
       cx="-442.41202" /></g><g
     inkscape:groupmode="layer"
     id="layer4"
     inkscape:label="Capa 4" /><g
     inkscape:groupmode="layer"
     id="layer2"
     inkscape:label="Capa 2"
     style="display:inline"><path
       id="path4-9-0"
       style="display:inline;mix-blend-mode:normal;fill:url(#radialGradient30);fill-opacity:1;fill-rule:evenodd;stroke:#000000;stroke-width:6.48808;stroke-linecap:round;stroke-linejoin:round;stroke-dasharray:none;stroke-opacity:1"
       d="m 399.44636,451.69158 a 94.729544,111.80967 0 0 0 -94.72834,111.81208 94.729544,111.80967 0 0 0 3.83645,30.73541 l 90.61318,-62.08837 91.09137,62.41627 a 94.729544,111.80967 0 0 0 3.91569,-31.06331 94.729544,111.80967 0 0 0 -94.72835,-111.81208 z" /><ellipse
       style="display:inline;opacity:0.632546;fill:#ffffff;fill-opacity:1;stroke:#000000;stroke-width:2.14453;stroke-linecap:round;stroke-linejoin:round;stroke-dasharray:none;stroke-opacity:0"
       id="path4-9-0-8"
       cx="462.11581"
       cy="473.49368"
       rx="33.967117"
       ry="34.089767" /></g><g
     inkscape:groupmode="layer"
     id="layer3"
     inkscape:label="Capa 3"
     style="display:inline"><path
       style="display:none;fill:#f10000;fill-opacity:0;stroke:#000000;stroke-width:5.66929;stroke-linecap:round;stroke-linejoin:round;stroke-dasharray:none;stroke-opacity:1"
       d="m 93.904478,606.7674 c 6.741862,-7.70499 13.483722,-15.40997 24.318852,-25.0412 10.83513,-9.63122 25.76354,-21.1887 42.85897,-33.46852 17.09543,-12.27981 36.35788,-25.28197 51.04551,-35.39476 14.68762,-10.11279 24.80041,-17.33621 37.32101,-25.76354 12.5206,-8.42732 27.449,-18.05855 37.56179,-24.80041 10.11279,-6.74186 15.40997,-10.59435 20.46636,-13.7245 5.0564,-3.13015 9.87201,-5.53796 14.20606,-8.18654 4.33406,-2.64859 8.18655,-5.53796 14.92841,-9.87202 6.74186,-4.33405 16.37309,-10.11279 22.87416,-13.72449 6.50108,-3.61171 9.87201,-5.0564 14.44685,-7.70499 4.57483,-2.64859 10.35357,-6.50108 17.57699,-11.07591 7.22342,-4.57483 15.89153,-9.87201 21.91104,-11.55748 6.01952,-1.68546 9.39045,0.24078 11.79826,2.16703 2.40781,1.92625 3.85249,3.85249 5.53795,5.77874 1.68547,1.92624 3.61172,3.85249 5.0564,6.01952 1.44468,2.16702 2.40781,4.57483 9.14967,11.79825 6.74186,7.22342 19.26246,19.26246 26.72666,26.00432 7.4642,6.74186 9.87201,8.18655 11.79825,9.63123 1.92625,1.44468 3.37093,2.88937 5.53796,4.09327 2.16702,1.2039 5.05639,2.16703 8.18654,4.09327 3.13015,1.92625 6.50108,4.81562 11.07592,7.94576 4.57483,3.13015 10.35357,6.50108 13.7245,8.66811 3.37093,2.16703 4.33405,3.13015 5.53796,4.09327 1.2039,0.96313 2.64858,1.92625 10.83512,7.22343 8.18655,5.29717 23.11495,14.9284 32.26462,21.42948 9.14967,6.50108 12.5206,9.87201 16.61387,12.76138 4.09327,2.88936 8.90889,5.29717 12.76138,7.94576 3.85249,2.64859 6.74186,5.53795 9.63123,7.70498 2.88936,2.16702 5.77873,3.61171 8.42732,5.29718 2.64859,1.68546 5.0564,3.61171 6.98264,4.81561 1.92625,1.2039 3.37093,1.68547 5.0564,2.88937 1.68546,1.2039 3.61171,3.13015 5.77874,4.81561 2.16702,1.68547 4.57483,3.13016 7.22341,5.0564 2.64859,1.92624 5.53796,4.33405 8.90889,6.74186 3.37093,2.40781 7.22342,4.81561 9.87201,6.2603 2.64859,1.44468 4.09327,1.92624 5.0564,2.64858 0.96312,0.72235 1.44468,1.68547 2.16702,2.16703 0.72234,0.48156 1.68547,0.48156 2.64859,0.96312 0.96312,0.48157 1.92625,1.44469 2.88937,1.92625 0.96312,0.48156 1.92624,0.48156 3.37093,1.92624 1.44468,1.44469 3.37093,4.33406 5.53795,6.26031 2.16703,1.92624 4.57484,2.88937 6.98265,3.85249"
       id="path10"
       inkscape:path-effect="#path-effect10"
       inkscape:original-d="m 93.904478,606.7674 c 6.741862,-7.70499 13.483722,-15.40997 20.225582,-23.11495 14.9284,-11.55748 29.85681,-23.11495 44.78521,-34.67242 19.26246,-13.00216 38.52491,-26.00432 57.78737,-39.00648 10.11279,-7.22342 20.22558,-14.44684 30.33837,-21.67026 14.92841,-9.63123 29.85681,-19.26246 44.78521,-28.89369 5.29718,-3.85249 10.59436,-7.70498 15.89153,-11.55747 4.81562,-2.40781 9.63123,-4.81562 14.44684,-7.22342 3.8525,-2.88937 7.70499,-5.77874 11.55748,-8.66811 9.63123,-5.77874 19.26246,-11.55747 28.89368,-17.33621 3.37093,-1.44469 6.74186,-2.88937 10.11279,-4.33405 5.77874,-3.8525 11.55748,-7.70499 17.33622,-11.55748 8.6681,-5.29717 17.33621,-10.59435 26.00431,-15.89153 3.37093,1.92625 6.74186,3.85249 10.11279,5.77874 1.44469,1.92625 2.88937,3.85249 4.33406,5.77874 1.92624,1.92624 3.85249,3.85249 5.77873,5.77874 0.96313,2.4078 1.92625,4.81561 2.88937,7.22342 12.5206,12.03903 25.0412,24.07807 37.56179,36.1171 2.40781,1.44469 4.81562,2.88937 7.22342,4.33406 1.44469,1.44468 2.88937,2.88937 4.33406,4.33405 2.88936,0.96312 5.77873,1.92625 8.6681,2.88937 3.37093,2.88937 6.74186,5.77874 10.11279,8.6681 5.77874,3.37093 11.55748,6.74186 17.33621,10.11279 0.96313,0.96313 1.92625,1.92625 2.88937,2.88937 1.44469,0.96313 2.88937,1.92625 4.33405,2.88937 14.92841,9.63123 29.85681,19.26246 44.78522,28.89369 3.37093,3.37093 6.74186,6.74186 10.11279,10.11279 4.81561,2.4078 9.63123,4.81561 14.44684,7.22342 2.88937,2.88937 5.77874,5.77873 8.66811,8.6681 2.88936,1.44469 5.77873,2.88937 8.6681,4.33406 2.40781,1.92624 4.81562,3.85249 7.22342,5.77873 1.44469,0.48156 2.88937,0.96313 4.33406,1.44469 1.92624,1.92624 3.85249,3.85249 5.77873,5.77873 2.40781,1.44469 4.81562,2.88937 7.22342,4.33406 2.88937,2.4078 5.77874,4.81561 8.66811,7.22342 3.85249,2.40781 7.70498,4.81561 11.55747,7.22342 1.44469,0.48156 2.88937,0.96312 4.33406,1.44468 0.48156,0.96313 0.96312,1.92625 1.44468,2.88937 0.96312,0 1.92625,0 2.88937,0 0.96312,0.96313 1.92625,1.92625 2.88937,2.88937 0.96312,0 1.92624,0 2.88937,0 1.92624,2.88937 3.85249,5.77874 5.77873,8.66811 2.40781,0.96312 4.81562,1.92624 7.22343,2.88937" /><path
       style="fill:#000000;stroke-width:0.685452"
       d="m -527.63549,179.51495 c -33.41159,-29.89318 -64.34822,-49.85804 -95.42575,-61.58273 -58.30037,-21.99511 -113.94401,-12.12488 -170.90073,30.31482 -11.05222,8.23526 -19.39323,15.36941 -31.87157,27.26016 l -6.88115,6.55711 -22.60343,-20.76633 -22.60343,-20.76634 3.45324,-3.52179 c 4.80997,-4.90545 14.86189,-14.13241 22.8218,-20.94881 29.251,-25.04882 60.75762,-44.16783 91.38324,-55.45365 19.67224,-7.24939 38.27586,-11.49343 58.98006,-13.45508 6.263,-0.5934 24.50739,-0.83335 31.31264,-0.41182 31.33656,1.94103 60.39662,9.68355 91.21182,24.30171 31.66794,15.02268 61.02048,35.12258 93.04307,63.71362 l 5.3624,4.78776 -3.22037,3.21433 c -1.77119,1.76789 -11.50259,11.50967 -21.62533,21.6484 -10.12273,10.13873 -18.47667,18.43326 -18.56431,18.43229 -0.0876,-6.8e-4 -1.83013,-1.49661 -3.8722,-3.32365 z m 80.80531,-68.58398 C -449.07679,108.5239 -467.82206,92.27842 -476.36942,85.33092 -539.38261,34.11235 -600.36212,5.66737 -659.2993,0 c -15.01441,-1.44378 -32.77264,-1.34353 -47.5532,0.26846 -64.07167,6.98772 -128.75521,41.91736 -192.06925,103.71893 l -6.85452,6.69078 -2.85604,-2.66404 c -4.85964,-4.53292 -41.39639,-38.08296 -42.22425,-38.77261 -0.50032,-0.41679 20.14522,-20.01181 31.81216,-30.19344 51.35329,-44.815549 104.23834,-74.805485 157.90091,-89.54208 20.40076,-5.60237 39.84964,-8.8436 61.85951,-10.3091 5.91597,-0.39391 24.04968,-0.5421 30.27411,-0.2474 20.31012,0.96158 39.31099,3.68066 59.20465,8.47235 58.864,14.178288 118.0536,45.804216 177.41894,94.79771 11.18662,9.23218 29.42077,25.29109 29.41597,25.9068 -6.9e-4,0.0932 -0.41582,0.60164 -0.92243,1.12978 -1.07295,1.11853 -25.95839,26.07764 -30.6374,30.7281 -1.74598,1.73531 -5.02646,5.00703 -7.28995,7.27049 -2.26351,2.26345 -4.19292,4.14924 -4.2876,4.19063 -0.0947,0.0414 -0.41979,-0.19009 -0.72249,-0.51439 z"
       id="path14"
       sodipodi:nodetypes="cssscccssssssscssccssssscsssssssscsssss" /><path
       sodipodi:type="star"
       style="fill:#3b110e;fill-opacity:1;fill-rule:nonzero;stroke:#ffffff;stroke-width:7.82117;stroke-linecap:round;stroke-linejoin:miter;stroke-dasharray:none;stroke-opacity:1"
       id="path3"
       inkscape:flatsided="true"
       sodipodi:sides="3"
       sodipodi:cx="400"
       sodipodi:cy="692.60822"
       sodipodi:r1="253.17743"
       sodipodi:r2="126.58872"
       sodipodi:arg1="0.52359878"
       sodipodi:arg2="1.5707963"
       inkscape:rounded="0"
       inkscape:randomized="0"
       d="m 619.25808,819.19693 -438.51617,0 L 400,439.43079 Z"
       inkscape:transform-center-y="-43.063806"
       transform="matrix(1.7198541,0,0,0.68037385,-288.49527,241.15985)"
       inkscape:label="path15"
       inkscape:transform-center-x="1.9990006e-06" /></g></svg>
